<svg width="20" height="20" viewBox="0 0 20 20" fill="none" xmlns="http://www.w3.org/2000/svg">
<path d="M18.2036 9.06254H9.16004C7.09144 9.06254 5.07809 8.68008 3.16426 7.92508V2.14844C3.16426 1.60996 3.60234 1.17188 4.14082 1.17188H4.92207C5.46055 1.17188 5.89863 1.60996 5.89863 2.14844V2.42563C4.99797 2.68137 4.33613 3.51066 4.33613 4.49219V5.27344C4.33613 5.59703 4.59848 5.85938 4.92207 5.85938H8.04707C8.37066 5.85938 8.63301 5.59703 8.63301 5.27344V4.49219C8.63301 3.51066 7.97117 2.68141 7.07051 2.42563V2.14844C7.07051 0.963789 6.10672 0 4.92207 0H4.14082C2.95617 0 1.99238 0.963789 1.99238 2.14844V7.51137C1.25141 7.42953 0.509297 7.82797 0.191094 8.54375C0.00039069 8.9727 -0.0117968 9.45031 0.15668 9.88859C0.325156 10.327 0.654219 10.6734 1.08324 10.8641C1.12586 10.883 1.16867 10.9014 1.21137 10.92V13.1641C1.21137 14.9751 2.12914 16.5757 3.52391 17.5256L2.48164 19.089C2.30211 19.3582 2.37488 19.722 2.64414 19.9015C2.74406 19.9681 2.85691 20 2.96863 20C3.15797 20 3.34379 19.9084 3.45668 19.739L4.56543 18.0758C5.16055 18.3092 5.80793 18.4375 6.48477 18.4375H13.516C14.1929 18.4375 14.8402 18.3091 15.4353 18.0758L16.5441 19.739C16.6571 19.9084 16.8428 20 17.0322 20C17.1439 20 17.2568 19.9681 17.3567 19.9015C17.626 19.722 17.6987 19.3582 17.5192 19.089L16.4769 17.5256C17.8717 16.5757 18.7895 14.9752 18.7895 13.1641V12.4774C19.4715 12.2355 19.9614 11.5843 19.9614 10.8204C19.9614 9.85109 19.1728 9.06254 18.2036 9.06254ZM6.48457 3.51562C7.02305 3.51562 7.46113 3.95371 7.46113 4.49219V4.6875H5.50801V4.49219C5.50801 3.95371 5.94609 3.51562 6.48457 3.51562ZM17.6176 13.1641C17.6176 15.4257 15.7777 17.2656 13.5161 17.2656H6.4848C4.2232 17.2656 2.38324 15.4257 2.38324 13.1641V11.3884C4.55543 12.1782 6.82879 12.5782 9.16004 12.5782H17.6176V13.1641ZM18.2036 11.4063H9.16004C6.52426 11.4063 3.96699 10.8636 1.55922 9.7932C1.26402 9.66203 1.13066 9.31504 1.26195 9.01977C1.35879 8.80184 1.57375 8.67227 1.79855 8.67227C1.87785 8.67227 1.9584 8.6884 2.03535 8.7225C4.29242 9.72574 6.68949 10.2344 9.16004 10.2344H18.2036C18.5266 10.2344 18.7895 10.4973 18.7895 10.8204C18.7895 11.1434 18.5266 11.4063 18.2036 11.4063Z" fill="#5F5F5F"/>
</svg>
