<svg width="20" height="19" viewBox="0 0 20 19" fill="none" xmlns="http://www.w3.org/2000/svg">
<path fill-rule="evenodd" clip-rule="evenodd" d="M18.7241 2.77301V9.05918C19.5116 9.84051 20 10.9229 20 12.1172V16.8837C20 17.7587 19.2882 18.4705 18.4132 18.4705C17.5382 18.4705 16.8264 17.7587 16.8264 16.8837V16.3914H3.17363V16.8837C3.17363 17.7587 2.4618 18.4705 1.58684 18.4705C0.711836 18.4705 0 17.7587 0 16.8837V12.1172C0 10.9637 0.455586 9.91457 1.19621 9.14027V2.77301C1.19621 1.24398 2.44016 0 3.96922 0H15.9511C17.4801 0 18.7241 1.24395 18.7241 2.77301ZM15.9511 0.78125H3.96922C2.87094 0.78125 1.97746 1.67477 1.9775 2.77301V8.49461C2.23965 8.32523 2.52125 8.18352 2.81816 8.07363V6.77465C2.81816 5.62305 3.75504 4.68621 4.9066 4.68621H8.30223C9.00129 4.68621 9.62078 5.0318 10 5.56074C10.3793 5.0318 10.9988 4.68621 11.6979 4.68621H15.0935C16.245 4.68621 17.1819 5.62309 17.1819 6.77465V8.07363C17.4489 8.17246 17.7036 8.29707 17.9428 8.44438V2.77301C17.9428 1.67477 17.0493 0.78125 15.9511 0.78125ZM3.59934 7.86621C3.83055 7.8277 4.06789 7.8073 4.30988 7.8073V7.80734H9.60934V6.77465C9.60934 6.05387 9.02293 5.46746 8.30215 5.46746H4.90652C4.18574 5.46746 3.59934 6.05387 3.59934 6.77465V7.86621ZM11.6978 5.46742C10.977 5.46742 10.3906 6.05383 10.3906 6.77461V7.80727H15.6901C15.9321 7.80727 16.1694 7.82766 16.4006 7.86617V6.77461C16.4006 6.05383 15.8142 5.46742 15.0934 5.46742H11.6978ZM15.6901 8.58855H4.30988C2.36418 8.58855 0.78125 10.1715 0.78125 12.1172V13.2761H11.3946C11.6104 13.2761 11.7853 13.451 11.7853 13.6667C11.7853 13.8824 11.6104 14.0573 11.3946 14.0573H0.78125V15.6102H19.2188V14.0573H15.3009C15.0852 14.0573 14.9103 13.8824 14.9103 13.6667C14.9103 13.451 15.0852 13.2761 15.3009 13.2761H19.2187V12.1172C19.2187 10.1715 17.6358 8.58855 15.6901 8.58855ZM1.58684 17.6893C2.03102 17.6893 2.39238 17.3279 2.39238 16.8837V16.3914H0.78125V16.8837C0.78125 17.3279 1.14266 17.6893 1.58684 17.6893ZM17.6076 16.8837C17.6076 17.3279 17.969 17.6893 18.4132 17.6893C18.8574 17.6893 19.2188 17.3279 19.2188 16.8837V16.3914H17.6076V16.8837ZM13.7384 13.6666C13.7384 13.8824 13.5634 14.0574 13.3476 14.0574C13.1317 14.0574 12.9568 13.8824 12.9568 13.6666C12.9568 13.4507 13.1317 13.2758 13.3476 13.2758C13.5634 13.2758 13.7384 13.4507 13.7384 13.6666Z" fill="#5F5F5F"/>
</svg>
